<?xml version="1.0" encoding="UTF-8" standalone="no"?>
<!-- Created with Inkscape (http://www.inkscape.org/) -->

<svg
   xmlns:dc="http://purl.org/dc/elements/1.1/"
   xmlns:cc="http://creativecommons.org/ns#"
   xmlns:rdf="http://www.w3.org/1999/02/22-rdf-syntax-ns#"
   xmlns:svg="http://www.w3.org/2000/svg"
   xmlns="http://www.w3.org/2000/svg"
   xmlns:sodipodi="http://sodipodi.sourceforge.net/DTD/sodipodi-0.dtd"
   xmlns:inkscape="http://www.inkscape.org/namespaces/inkscape"
   version="1.1"
   id="svg2"
   width="1200.0001"
   height="1200"
   viewBox="0 0 1200.0001 1200"
   sodipodi:docname="logo.svg"
   inkscape:version="0.92.3 (2405546, 2018-03-11)">
  <metadata
     id="metadata8">
    <rdf:RDF>
      <cc:Work
         rdf:about="">
        <dc:format>image/svg+xml</dc:format>
        <dc:type
           rdf:resource="http://purl.org/dc/dcmitype/StillImage" />
        <dc:title></dc:title>
      </cc:Work>
    </rdf:RDF>
  </metadata>
  <defs
     id="defs6" />
  <sodipodi:namedview
     pagecolor="#ffffff"
     bordercolor="#666666"
     borderopacity="1"
     objecttolerance="10"
     gridtolerance="10"
     guidetolerance="10"
     inkscape:pageopacity="0"
     inkscape:pageshadow="2"
     inkscape:window-width="1366"
     inkscape:window-height="723"
     id="namedview4"
     showgrid="false"
     fit-margin-top="0"
     fit-margin-left="0"
     fit-margin-right="0"
     fit-margin-bottom="0"
     inkscape:zoom="0.55625733"
     inkscape:cx="507.83928"
     inkscape:cy="701.74112"
     inkscape:window-x="0"
     inkscape:window-y="0"
     inkscape:window-maximized="1"
     inkscape:current-layer="svg2" />
  <path
     style="fill:#196b69;fill-opacity:1"
     d="M 0,600 V 0 h 600.00012 600.00008 v 600 600 H 600.00012 0 Z m 448.4643,314.01731 c 6.2037,-3.00315 11.5224,-8.31513 14.6129,-14.5944 2.0868,-4.24007 2.417,-6.30999 2.3805,-14.92291 -0.049,-11.59729 -2.0855,-17.12788 -8.7663,-23.80864 -6.282,-6.28203 -11.5671,-8.18973 -22.6913,-8.19061 -8.3734,-6.6e-4 -10.1738,0.33014 -15.1816,2.78934 -10.6828,5.24603 -15.9499,13.71804 -16.6057,26.70991 -0.496,9.82585 0.5787,14.70275 4.6575,21.13427 6.0843,9.59395 15.6524,14.12665 28.6711,13.58236 5.898,-0.24658 9.3425,-0.96608 12.9229,-2.69932 z m -21.096,-10.10546 c -4.8926,-1.41817 -9.993,-7.78724 -11.3078,-14.12071 -3.5037,-16.87731 10.1744,-30.31597 24.6851,-24.253 7.6299,3.18797 11.2106,9.2444 11.2106,18.96186 0,14.90032 -10.783,23.41332 -24.5879,19.41185 z m 106.99952,9.71854 c 4.8209,-2.8252 9.1312,-8.87477 10.2269,-14.35359 0.6123,-3.06159 0.5715,-3.09619 -5.172,-4.38153 -3.6989,-0.82779 -5.9085,-0.93762 -6.1196,-0.30419 -3.2204,9.66099 -12.3873,13.20578 -19.4266,7.5121 -2.309,-1.8677 -2.3854,-2.40667 -2.6923,-19.01268 L 510.86842,866 h 12.5658 12.5659 v -6 -6 h -12.5 -12.5 V 841.5 829 h -7 -7 v 12.5 12.5 h -7 -7 v 6 6 h 7 7 v 15.63398 c 0,18.78675 0.8558,22.27341 6.9723,28.40457 5.5755,5.58883 9.477,6.96291 18.672,6.57601 5.5893,-0.23519 8.1409,-0.8847 11.7234,-2.98417 z m 220.46495,1.82668 c 2.8576,-0.84861 6.7642,-2.92022 8.6815,-4.60359 l 3.4859,-3.06066 V 911.39641 915 h 7 7 l -0.022,-23.25 c -0.024,-25.71802 -0.6681,-29.00092 -6.6024,-33.66944 -9.4727,-7.4521 -27.1273,-8.03427 -42.42695,-1.39904 l -5.8678,2.54478 2.5798,5.13685 c 1.4189,2.82527 2.66,5.23367 2.758,5.352 0.098,0.11834 2.8564,-0.85054 6.1297,-2.15306 15.53335,-6.18095 29.45545,-3.51457 29.44945,5.64016 V 876.5 l -11.2478,0.0664 c -12.7723,0.0754 -20.16845,2.22984 -26.38095,7.68453 -4.7348,4.1572 -6.367,7.71059 -6.367,13.86152 0,14.53169 14.5708,22.47082 31.83265,17.34459 z m -12.4782,-11.14912 c -5.77815,-1.13022 -7.64435,-8.94156 -3.07515,-12.87176 3.01795,-2.59587 10.54075,-4.44217 18.01995,-4.42254 8.2863,0.0218 9.7008,0.68786 9.7008,4.56819 0,8.5424 -12.6473,15.07303 -24.6456,12.72611 z m 105.1456,10.3392 c 10.6049,-4.94892 16.667,-15.89549 16.6951,-30.14715 0.048,-24.21364 -19.821,-39.42835 -38.5936,-29.55342 l -5.6015,2.94659 V 843.44658 829 h -7 -7 v 43 43 h 7 c 6.3333,0 7,-0.19048 7,-2 0,-2.16541 1.4637,-2.67676 2.5643,-0.89587 0.3754,0.60727 2.5394,1.94738 4.8091,2.97803 5.8278,2.64643 13.8972,2.47202 20.1266,-0.43501 z m -19.5864,-10.60287 c -1.4226,-0.4311 -3.7851,-1.56918 -5.25,-2.52906 l -2.6636,-1.74524 v -15.30343 -15.30343 l 3.3702,-2.0829 c 8.7414,-5.40251 19.2456,-3.00471 24.2506,5.53575 3.8763,6.61435 4.0257,16.67743 0.3473,23.38403 -3.896,7.10335 -12.1863,10.42875 -20.0545,8.04428 z m 96.9388,11.89396 c 14.6441,-3.14062 21.8121,-15.29156 15.8976,-26.94931 -2.7994,-5.5178 -8.1058,-8.41967 -19.2727,-10.53956 -21.1207,-4.00947 -24.5952,-5.49203 -22.4157,-9.56459 1.8163,-3.39363 5.1176,-4.3512 14.9384,-4.3329 7.7841,0.0145 10.4537,0.44241 14.7804,2.36914 2.9043,1.2933 5.4364,2.17764 5.6271,1.96522 0.8289,-0.92359 4.5925,-8.89184 4.5925,-9.72326 0,-1.21978 -8.1772,-4.61089 -14.8864,-6.17343 -7.5129,-1.74972 -20.4744,-0.80826 -26.6831,1.93815 -9.018,3.98911 -12.4305,8.78997 -12.4305,17.48784 0,4.79593 0.4237,5.99742 3.25,9.21646 4.278,4.87249 8.8874,6.77369 22.7243,9.37306 13.9279,2.61646 18.0257,4.1788 18.0257,6.87248 0,8.30667 -19.7693,9.52079 -35.3086,2.16847 l -5.8086,-2.74829 -2.4414,4.81789 c -1.3428,2.64985 -2.4414,5.27372 -2.4414,5.83082 0,1.56828 7.4431,4.99632 15.347,7.0683 8.0739,2.11657 19.1439,2.50227 26.5054,0.92351 z M 284,909 v -6 h -6.5 -6.5 l 0.022,-10.75 c 0.025,-12.21992 1.5552,-17.03348 6.8242,-21.46706 4.4713,-3.76237 12.772,-5.44541 19.3584,-3.92508 2.832,0.6537 5.4853,0.8406 5.8962,0.41534 0.7586,-0.785 4.8978,-11.25678 4.8988,-12.39324 0.001,-1.48079 -9.4425,-3.11757 -15.0524,-2.60888 -7.8852,0.71501 -14.6312,4.16442 -18.6898,9.55666 L 271,866.15548 V 860.07774 854 h -14 -14 v 6 6 h 7 7 v 18.5 18.5 h -7 -7 v 6 6 h 20.5 20.5 z m 91,0 v -6 h -7 -7 V 878.5 854 h -14 -14 v 6 6 h 7 7 v 18.5 18.5 h -7 -7 v 6 6 h 21 21 z m 320.00012,0 v -6 h -7 -7 v -37 -37 h -14 -14 v 6 6 h 7 7 v 31 31 h -7 -7 v 6 6 h 21 21 z M 362,837.5 V 829 h -8.5 -8.5 v 7.83333 c 0,4.30834 0.3,8.13334 0.6667,8.5 0.3667,0.36667 4.1917,0.66667 8.5,0.66667 H 362 Z m 25.7997,-111.92713 c 1.4852,-0.78492 32.4816,-31.27242 68.8808,-67.75 47.08962,-47.19097 66.38912,-67.16828 66.90382,-69.25358 0.899,-3.64257 -1.1301,-7.57565 -4.8247,-9.35187 -2.2052,-1.06018 -3.2393,-1.03493 -5.9637,0.14561 -1.9646,0.85135 -30.2563,28.44381 -70.04582,68.31464 -62.8895,63.01807 -66.7482,67.08702 -66.7183,70.35439 0.034,3.73726 1.3066,5.94694 4.4683,7.76012 2.6614,1.5263 4.0772,1.48377 7.2996,-0.21931 z m 431.51617,0.26379 c 3.2975,-1.75622 4.6173,-3.97032 4.6525,-7.8046 0.03,-3.26737 -3.8287,-7.33632 -66.7182,-70.35439 -38.23065,-38.30869 -68.11475,-67.47848 -69.94415,-68.27212 -5.4501,-2.3644 -11.3059,1.4717 -11.3059,7.40647 0,3.24732 4.133,7.61093 66.25005,69.94613 36.4375,36.56551 67.6,67.32686 69.25,68.35856 3.4958,2.1858 4.8323,2.30892 7.8157,0.71995 z M 569.00012,571 v -6 h -6.5 -6.5 v 6 6 h 6.5 6.5 z m 25,0 v -6 h -6.5 -6.5 v 6 6 h 6.5 6.5 z m 25,0 v -6 h -6.5 -6.5 v 6 6 h 6.5 6.5 z m 25,0 v -6 h -6.5 -6.5 v 6 6 h 6.5 6.5 z M 424.7899,566.07701 c 4.7566,-2.46535 48.7396,-46.66299 50.1474,-50.39211 1.481,-3.92298 1.3253,-9.28694 -0.3625,-12.48456 -0.784,-1.48519 -11.6965,-12.8961 -24.25,-25.35759 -32.6846,-32.4448 -28.9353,-32.47059 -62.0413,0.42665 -12.7692,12.6886 -23.9067,24.52428 -24.7501,26.30152 -1.9242,4.05504 -1.967,9.71143 -0.1,13.22874 1.9815,3.7331 45.3678,46.74912 49.0667,48.64796 4.0194,2.06339 7.8145,1.94894 12.2898,-0.37061 z m -27.7929,-34.58011 -20.4849,-20.50311 21.241,-21.24096 21.241,-21.24096 21.0031,20.98524 21.0031,20.98524 -20.7412,20.75882 C 428.8515,542.65853 419.0598,552 418.4999,552 c -0.56,0 -10.2363,-9.2264 -21.5029,-20.5031 z m 389.79297,34.58011 c 4.7566,-2.46535 48.7396,-46.66299 50.1474,-50.39211 1.481,-3.92298 1.3253,-9.28694 -0.3625,-12.48456 -0.784,-1.48519 -11.6965,-12.8961 -24.25,-25.35759 -32.6846,-32.4448 -28.9353,-32.47059 -62.0413,0.42665 -12.76925,12.6886 -23.90675,24.52428 -24.75005,26.30152 -1.9243,4.05504 -1.9671,9.71143 -0.1001,13.22874 1.9815,3.7331 45.36785,46.74912 49.06675,48.64796 4.0194,2.06339 7.8145,1.94894 12.2898,-0.37061 z m -27.7929,-34.58011 -20.48485,-20.50311 21.24095,-21.24096 21.241,-21.24096 21.0031,20.98524 21.0031,20.98524 -20.7412,20.75882 C 790.85157,542.65853 781.05987,552 780.49997,552 c -0.56,0 -10.2363,-9.2264 -21.5029,-20.5031 z M 656.00012,502.5 V 446 h -56 -56 v 56.5 56.5 h 56 56 z m -26.25,42.41989 c -2.1766,-1.26775 -4.75,-6.11502 -4.75,-8.94715 0,-3.29307 5.2761,-7.97274 8.9888,-7.97274 4.4181,0 6.9577,1.62768 8.5736,5.49511 3.2493,7.77665 -5.5716,15.64218 -12.8124,11.42478 z m -69.0937,-69.05242 c -5.3557,-3.11319 -5.1091,-12.54772 0.4024,-15.39785 6.253,-3.23354 12.5045,-0.13776 13.5984,6.73399 0.5094,3.20002 0.1753,4.11783 -2.4569,6.75 -3.239,3.23901 -7.9271,4.01625 -11.5439,1.91386 z M 538.00012,540 v -6 h -6.5 -6.5 v 6 6 h 6.5 6.5 z m 137,0 v -6 h -6.5 -6.5 v 6 6 h 6.5 6.5 z m -137,-25 v -6 h -6.5 -6.5 v 6 6 h 6.5 6.5 z m 137,0 v -6 h -6.5 -6.5 v 6 6 h 6.5 6.5 z m -137,-25 v -6 h -6.5 -6.5 v 6 6 h 6.5 6.5 z m 137,0 v -6 h -6.5 -6.5 v 6 6 h 6.5 6.5 z m -137,-25 v -6 h -6.5 -6.5 v 6 6 h 6.5 6.5 z m 137,0 v -6 h -6.5 -6.5 v 6 6 h 6.5 6.5 z m -106,-31 v -6 h -6.5 -6.5 v 6 6 h 6.5 6.5 z m 25,0 v -6 h -6.5 -6.5 v 6 6 h 6.5 6.5 z m 25,0 v -6 h -6.5 -6.5 v 6 6 h 6.5 6.5 z m 25,0 v -6 h -6.5 -6.5 v 6 6 h 6.5 6.5 z m -122.9231,-9.92308 c 2.0376,-2.03757 2.9231,-3.91258 2.9231,-6.18947 0,-2.98753 -5.6986,-8.97945 -66.75002,-70.18638 -38.533,-38.63108 -68.1037,-67.50504 -69.9522,-68.30397 -5.8111,-2.51156 -11.2068,1.11425 -11.2661,7.5706 -0.03,3.26678 3.807,7.31446 66.2183,69.85608 36.43752,36.5136 67.60002,67.23895 69.25002,68.27855 4.1285,2.6012 6.1688,2.38274 9.5769,-1.02541 z m 166.7227,1.49323 c 1.4852,-0.78642 32.7379,-31.51335 69.45045,-68.28206 62.8959,-62.99222 66.7481,-67.05245 66.7182,-70.32015 -0.059,-6.45053 -5.4479,-10.07683 -11.266,-7.58137 -1.8661,0.80036 -31.0543,29.3282 -69.9522,68.3694 -63.11125,63.34371 -66.75005,67.18867 -66.75005,70.5311 0,2.7199 0.7095,4.13217 3.0767,6.12404 3.5253,2.9663 4.9519,3.15585 8.7229,1.15904 z"
     id="path12"
     inkscape:connector-curvature="0" />
</svg>
