<?xml version="1.0" encoding="UTF-8" standalone="no"?>
<!-- Created with Inkscape (http://www.inkscape.org/) -->

<svg
   xmlns:dc="http://purl.org/dc/elements/1.1/"
   xmlns:cc="http://creativecommons.org/ns#"
   xmlns:rdf="http://www.w3.org/1999/02/22-rdf-syntax-ns#"
   xmlns:svg="http://www.w3.org/2000/svg"
   xmlns="http://www.w3.org/2000/svg"
   xmlns:sodipodi="http://sodipodi.sourceforge.net/DTD/sodipodi-0.dtd"
   xmlns:inkscape="http://www.inkscape.org/namespaces/inkscape"
   version="1.1"
   id="svg2"
   width="634.70441"
   height="596"
   viewBox="0 0 634.70441 596"
   sodipodi:docname="logo_transparent_standalone.svg"
   inkscape:version="0.92.3 (2405546, 2018-03-11)">
  <metadata
     id="metadata8">
    <rdf:RDF>
      <cc:Work
         rdf:about="">
        <dc:format>image/svg+xml</dc:format>
        <dc:type
           rdf:resource="http://purl.org/dc/dcmitype/StillImage" />
        <dc:title></dc:title>
      </cc:Work>
    </rdf:RDF>
  </metadata>
  <defs
     id="defs6" />
  <sodipodi:namedview
     pagecolor="#ffffff"
     bordercolor="#666666"
     borderopacity="1"
     objecttolerance="10"
     gridtolerance="10"
     guidetolerance="10"
     inkscape:pageopacity="0"
     inkscape:pageshadow="2"
     inkscape:window-width="1366"
     inkscape:window-height="723"
     id="namedview4"
     showgrid="false"
     fit-margin-top="0"
     fit-margin-left="0"
     fit-margin-right="0"
     fit-margin-bottom="0"
     inkscape:zoom="0.78841868"
     inkscape:cx="608.81146"
     inkscape:cy="278.24737"
     inkscape:window-x="0"
     inkscape:window-y="0"
     inkscape:window-maximized="1"
     inkscape:current-layer="svg2" />
  <path
     style="fill:#196b69;stroke-width:1.33333337;fill-opacity:1"
     d="m 21.350957,3.51314 c -2.90901,3.69822 -3.50671,7.91555 -1.55789,10.99242 0.64059,1.01138 41.57112,42.26138 90.956733,91.66666 C 197.18526,192.64209 200.72597,196 205.4679,196 c 3.73363,0 5.59503,-0.85043 7.68952,-3.51315 6.03691,-7.67468 9.43233,-3.76965 -88.22334,-101.46402 C 37.401037,3.4551 33.760667,0 29.030847,0 c -3.72322,0 -5.58713,0.85264 -7.67989,3.51314 z M 509.57436,91.02283 c -97.65572,97.69437 -94.26029,93.78934 -88.22338,101.46402 2.1953,2.7909 3.90854,3.51447 8.33333,3.51959 5.54901,0.007 5.73432,-0.1598 49.42835,-44.33333 24.1221,-24.38688 64.7721,-65.35938 90.3333,-91.05001 49.8526,-50.10496 49.5414,-49.69842 43.7115,-57.10996 C 611.06466,0.85264 609.20076,0 605.47756,0 c -4.7298,0 -8.3702,3.4551 -95.9032,91.02283 z M 258.58753,206.66667 v 8 h 8.66667 8.66666 v -8 -8 h -8.66666 -8.66667 z m 33.33333,0 v 8 h 8.66667 8.66667 v -8 -8 h -8.66667 -8.66667 z m 33.33334,0 v 8 h 8.66667 8.66666 v -8 -8 h -8.66666 -8.66667 z m 33.33333,0 v 8 h 8.66667 8.66667 v -8 -8 h -8.66667 -8.66667 z m -289.333343,4.9782 c -4.27215,0.78828 -64.9213492,60.68095 -67.4874792,66.64564 -2.87244,6.67671 -2.26380003,12.54055 1.98408,19.11512 5.1049195,7.90104 59.9405392,62.06618 64.6453892,63.85496 6.98393,2.65528 14.68814,1.72915 20.32463,-2.44326 8.68768,-6.43106 60.262533,-59.2219 61.780843,-63.23746 2.11138,-5.58411 1.72882,-11.0912 -1.15544,-16.63299 -3.763,-7.23016 -60.934033,-63.70381 -67.049193,-66.23132 -4.97441,-2.05601 -6.86269,-2.21103 -13.04283,-1.07069 z m 34.670523,103.67678 -28.003853,28.00385 -28.32542,-28.32543 -28.32542,-28.32541 27.98045,-28.00427 27.98045,-28.00425 28.348823,28.32582 28.34882,28.32582 z M 551.92086,211.64487 c -4.2721,0.78828 -64.9213,60.68095 -67.4875,66.64564 -2.8691,6.66904 -2.2628,12.54028 1.9739,19.11512 4.9701,7.7128 60.1569,62.14458 64.7942,63.90767 6.8409,2.60091 14.5875,1.64748 20.186,-2.48444 2.8601,-2.11079 17.8952,-16.66336 33.4115,-32.33905 40.2345,-40.64774 40.383,-36.21005 -2.6658,-79.64767 -35.0176,-35.33394 -38.0295,-37.44518 -50.2123,-35.19727 z m 34.6705,103.67678 -28.0038,28.00385 -28.3254,-28.32543 -28.3255,-28.32541 27.9805,-28.00427 27.9804,-28.00425 28.3489,28.32582 28.3488,28.32582 z M 242.58753,298 v 75.33334 h 74.66667 74.66667 V 298 222.66667 H 317.2542 242.58753 Z m 128.67306,-54.78149 c 6.08228,6.08228 5.48505,14.43235 -1.3527,18.91261 -8.00152,5.24279 -19.32036,-0.76493 -19.32036,-10.25472 0,-9.93185 13.67287,-15.65806 20.67306,-8.65789 z m -90.65845,93.04203 c 4.53894,5.3942 4.33683,10.92648 -0.57872,15.84203 -5.06782,5.06782 -12.10202,5.35252 -16.77561,0.67893 -6.56728,-6.56728 -5.20615,-15.50793 2.98409,-19.60115 5.60987,-2.80364 10.2576,-1.80742 14.37024,3.08019 z M 217.25419,248 v 8 h 8 8.00001 v -8 -8 h -8.00001 -8 z m 184.00001,0 v 8 h 8 8 v -8 -8 h -8 -8 z m -184.00001,33.33334 v 8 h 8 8.00001 v -8 -8 h -8.00001 -8 z m 184.00001,0 v 8 h 8 8 v -8 -8 h -8 -8 z m -184.00001,33.33333 v 8 h 8 8.00001 v -8 -8 h -8.00001 -8 z m 184.00001,0 v 8 h 8 8 v -8 -8 h -8 -8 z m -184.00001,33.33334 v 8 h 8 8.00001 v -8 -8 h -8.00001 -8 z m 184.00001,0 v 8 h 8 8 v -8 -8 h -8 -8 z m -142.66667,41.33333 v 8 h 8.66667 8.66666 v -8 -8 h -8.66666 -8.66667 z m 33.33333,0 v 8 h 8.66667 8.66667 v -8 -8 h -8.66667 -8.66667 z m 33.33334,0 v 8 h 8.66667 8.66666 v -8 -8 h -8.66666 -8.66667 z m 33.33333,0 v 8 h 8.66667 8.66667 v -8 -8 h -8.66667 -8.66667 z M 110.36344,490.05677 c -49.328783,49.53122 -90.149133,90.78122 -90.711893,91.66667 -1.81387,2.85397 -1.13373,7.16167 1.69941,10.76343 2.09276,2.66051 3.95667,3.51315 7.67989,3.51315 4.72982,0 8.37019,-3.45511 95.903233,-91.02283 97.65567,-97.69438 94.26025,-93.78935 88.22334,-101.46403 -2.13668,-2.71635 -3.93623,-3.51315 -7.93436,-3.51315 -5.06939,0 -6.93217,1.76847 -94.85962,90.05676 z m 310.98754,-86.54361 c -5.81574,7.3935 -7.26892,5.63145 62.94848,76.32724 36.1415,36.38779 77.1475,77.40962 91.1244,91.15962 23.448,23.06724 25.7821,25 30.1914,25 3.5745,0 5.4752,-0.88535 7.5422,-3.51315 5.7732,-7.33944 5.7101,-7.42482 -37.7347,-51.10381 -22.274,-22.39401 -62.924,-63.36862 -90.3334,-91.05469 -49.75572,-50.25807 -49.84404,-50.33831 -55.40505,-50.33333 -4.42579,0.004 -6.13753,0.72661 -8.33333,3.51812 z"
     id="path30"
     inkscape:connector-curvature="0" />
</svg>
