<?xml version="1.0" encoding="UTF-8" standalone="no"?>
<!-- Created with Inkscape (http://www.inkscape.org/) -->

<svg
   xmlns:dc="http://purl.org/dc/elements/1.1/"
   xmlns:cc="http://creativecommons.org/ns#"
   xmlns:rdf="http://www.w3.org/1999/02/22-rdf-syntax-ns#"
   xmlns:svg="http://www.w3.org/2000/svg"
   xmlns="http://www.w3.org/2000/svg"
   xmlns:sodipodi="http://sodipodi.sourceforge.net/DTD/sodipodi-0.dtd"
   xmlns:inkscape="http://www.inkscape.org/namespaces/inkscape"
   version="1.1"
   id="svg2"
   width="896"
   height="744"
   viewBox="0 0 896 744"
   sodipodi:docname="logo_standalone.svg"
   inkscape:version="0.92.3 (2405546, 2018-03-11)">
  <metadata
     id="metadata8">
    <rdf:RDF>
      <cc:Work
         rdf:about="">
        <dc:format>image/svg+xml</dc:format>
        <dc:type
           rdf:resource="http://purl.org/dc/dcmitype/StillImage" />
        <dc:title></dc:title>
      </cc:Work>
    </rdf:RDF>
  </metadata>
  <defs
     id="defs6" />
  <sodipodi:namedview
     pagecolor="#ffffff"
     bordercolor="#666666"
     borderopacity="1"
     objecttolerance="10"
     gridtolerance="10"
     guidetolerance="10"
     inkscape:pageopacity="0"
     inkscape:pageshadow="2"
     inkscape:window-width="1366"
     inkscape:window-height="723"
     id="namedview4"
     showgrid="false"
     fit-margin-top="0"
     fit-margin-left="0"
     fit-margin-right="0"
     fit-margin-bottom="0"
     inkscape:zoom="0.30915179"
     inkscape:cx="719.71119"
     inkscape:cy="611.36462"
     inkscape:window-x="0"
     inkscape:window-y="0"
     inkscape:window-maximized="1"
     inkscape:current-layer="svg2" />
  <path
     style="fill:#196b69;stroke-width:1.33333337;fill-opacity:1"
     d="M 0,372 V 0 H 448 895.99999 V 372 744 H 448 0 Z m 177.06621,287.43049 c 1.98026,-1.04656 43.30871,-41.69656 91.84103,-90.33333 62.78616,-62.92129 88.51879,-89.55771 89.20501,-92.33811 1.19871,-4.85676 -1.50673,-10.10086 -6.43286,-12.46916 -2.94027,-1.41357 -4.31911,-1.3799 -7.95158,0.19415 -2.61953,1.13513 -40.34181,37.92508 -93.39448,91.08619 -83.85268,84.02409 -88.99754,89.44936 -88.9576,93.80585 0.0457,4.98301 1.74211,7.92925 5.9576,10.34683 3.54851,2.03506 5.43626,1.97836 9.73288,-0.29242 z m 575.35478,0.35172 c 4.3966,-2.34162 6.1564,-5.29376 6.2033,-10.40613 0.04,-4.35649 -5.1049,-9.78176 -88.95762,-93.80585 -50.97407,-51.07826 -90.81962,-89.97131 -93.2588,-91.0295 -7.26684,-3.15253 -15.07454,1.96227 -15.07454,9.8753 0,4.32976 5.51071,10.1479 88.33334,93.2615 48.58333,48.75402 90.13332,89.76915 92.33332,91.14475 4.661,2.9144 6.4431,3.07856 10.421,0.95993 z M 418.66667,453.33333 v -8 H 410 401.33333 v 8 8 H 410 h 8.66667 z m 33.33333,0 v -8 h -8.66667 -8.66666 v 8 8 H 443.33333 452 Z m 33.33333,0 v -8 H 476.66667 468 v 8 8 h 8.66667 8.66666 z m 33.33334,0 v -8 H 510 501.33333 v 8 8 H 510 h 8.66667 z m -292.28022,-6.56398 c 6.34208,-3.28714 64.9861,-62.21732 66.8632,-67.18948 1.97468,-5.23064 1.76699,-12.38259 -0.48341,-16.64608 -1.04523,-1.98026 -15.59523,-17.1948 -32.33333,-33.81012 -43.57943,-43.25974 -38.58034,-43.29412 -82.72175,0.56886 -17.02552,16.91814 -31.87552,32.69904 -33,35.0687 -2.56565,5.40672 -2.62269,12.94857 -0.13339,17.63832 2.64203,4.97746 60.49038,62.33216 65.42223,64.86394 5.35925,2.75119 10.41941,2.59859 16.38645,-0.49414 z m -37.05725,-46.10682 -27.31308,-27.33748 28.32128,-28.32128 28.32128,-28.32128 28.00413,27.98032 28.00414,27.98032 -27.65491,27.67843 C 231.80185,415.54471 218.74629,428 217.99971,428 c -0.74659,0 -13.64832,-12.30187 -28.67051,-27.33747 z m 519.72392,46.10682 c 6.34208,-3.28714 64.98607,-62.21732 66.86317,-67.18948 1.9747,-5.23064 1.767,-12.38259 -0.4834,-16.64608 -1.0452,-1.98026 -15.5952,-17.1948 -32.3333,-33.81012 -43.57944,-43.25974 -38.58035,-43.29412 -82.72176,0.56886 -17.02552,16.91814 -31.87552,32.69904 -33,35.0687 -2.56566,5.40672 -2.6227,12.94857 -0.13339,17.63832 2.64203,4.97746 60.49037,62.33216 65.42223,64.86394 5.35925,2.75119 10.41941,2.59859 16.38645,-0.49414 z m -37.05725,-46.10682 -27.31308,-27.33748 28.32128,-28.32128 28.32128,-28.32128 28.00414,27.98032 28.0041,27.98032 -27.6549,27.67843 C 714.46852,415.54471 701.41296,428 700.66637,428 c -0.74658,0 -13.64832,-12.30187 -28.6705,-27.33747 z M 534.66667,362 V 286.66667 H 460 385.33333 V 362 437.33333 H 460 534.66667 Z m -35.00003,56.55985 c -2.90213,-1.69033 -6.33331,-8.15336 -6.33331,-11.92953 0,-4.39076 7.03476,-10.63032 11.9851,-10.63032 5.89084,0 9.27689,2.17024 11.43144,7.32681 4.3324,10.36887 -7.42878,20.85624 -17.08323,15.23304 z m -92.12491,-92.06989 c -7.1409,-4.15092 -6.81212,-16.73029 0.53662,-20.53047 8.33729,-4.31138 16.6726,-0.18368 18.13108,8.97866 0.6792,4.26669 0.23377,5.49044 -3.27578,9 -4.31868,4.31868 -10.56952,5.355 -15.39192,2.55181 z M 377.33333,412 v -8 H 368.66667 360 v 8 8 h 8.66667 8.66666 z M 560,412 v -8 h -8.66667 -8.66666 v 8 8 H 551.33333 560 Z M 377.33333,378.66667 v -8 H 368.66667 360 v 8 8 h 8.66667 8.66666 z m 182.66667,0 v -8 h -8.66667 -8.66666 v 8 8 H 551.33333 560 Z M 377.33333,345.33333 v -8 H 368.66667 360 v 8 8 h 8.66667 8.66666 z m 182.66667,0 v -8 h -8.66667 -8.66666 v 8 8 H 551.33333 560 Z M 377.33333,312 v -8 H 368.66667 360 v 8 8 h 8.66667 8.66666 z M 560,312 v -8 h -8.66667 -8.66666 v 8 8 H 551.33333 560 Z M 418.66667,270.66667 v -8 H 410 401.33333 v 8 8 H 410 h 8.66667 z m 33.33333,0 v -8 h -8.66667 -8.66666 v 8 8 H 443.33333 452 Z m 33.33333,0 v -8 H 476.66667 468 v 8 8 h 8.66667 8.66666 z m 33.33334,0 v -8 H 510 501.33333 v 8 8 H 510 518.66667 Z M 354.76923,257.43589 c 2.71677,-2.71676 3.89744,-5.21677 3.89744,-8.25262 0,-3.98338 -7.59807,-11.9726 -89,-93.58184 -51.37726,-51.5081 -90.80486,-90.00673 -93.26956,-91.07196 -7.74819,-3.34875 -14.94242,1.48567 -15.02138,10.09413 -0.04,4.3557 5.07592,9.75262 88.29094,93.14144 C 298.25,216.44984 339.8,257.41697 342,258.80311 c 5.50463,3.46826 8.22503,3.17698 12.76923,-1.36722 z m 222.29698,1.99098 c 1.98026,-1.04856 43.65046,-42.0178 92.60046,-91.04275 83.86122,-83.98962 88.99752,-89.40326 88.95762,-93.7602 -0.079,-8.60071 -7.2639,-13.43577 -15.0214,-10.10849 -2.488,1.06714 -41.40573,39.10426 -93.26956,91.1592 -84.14822,84.45828 -89,89.58489 -89,94.04146 0,3.62654 0.94604,5.50956 4.10231,8.16539 4.70032,3.95507 6.60247,4.2078 11.63057,1.54539 z"
     id="path817"
     inkscape:connector-curvature="0" />
</svg>
